<svg width="201" height="159" viewBox="0 0 201 159" fill="none" xmlns="http://www.w3.org/2000/svg">
<path fill-rule="evenodd" clip-rule="evenodd" d="M173.44 56.3125C175.649 56.3126 177.44 58.1034 177.44 60.3125V97.7812C177.44 101.503 172.803 103.208 170.392 100.372L150.081 76.4688C148.496 74.6037 145.622 74.5875 144.015 76.4336L105.513 120.67C104.215 122.162 102.02 122.48 100.35 121.419L88.0593 113.607C86.7065 112.748 84.9705 112.779 83.6492 113.687L65.7048 126.011C63.0507 127.833 59.4402 125.933 59.4402 122.713V60.3125C59.4402 58.1034 61.231 56.3125 63.4402 56.3125H173.44ZM84.8328 64.8701C78.7833 64.8701 73.8787 69.8289 73.8787 75.9453C73.8787 82.0617 78.7833 87.0195 84.8328 87.0195C90.882 87.0193 95.7858 82.0616 95.7859 75.9453C95.7859 69.829 90.8821 64.8703 84.8328 64.8701Z" fill="#D9D9D9"/>
<path fill-rule="evenodd" clip-rule="evenodd" d="M192.44 33.3125C196.858 33.3126 200.44 36.8943 200.44 41.3125V150.312C200.44 154.731 196.858 158.312 192.44 158.312H44.4402C40.0219 158.312 36.4402 154.731 36.4402 150.312V147.491L28.3181 148.924C24.1033 149.667 20.0778 146.963 19.1326 142.838L19.0505 142.435L0.122802 35.0898C-0.620248 30.8749 2.08354 26.8495 6.20874 25.9043L6.61206 25.8223L152.364 0.122073L152.772 0.061526C156.972 -0.46089 160.888 2.39672 161.632 6.61133L166.34 33.3125H192.44ZM154.155 33.3125L150.856 14.6045C150.664 13.5167 149.627 12.7906 148.539 12.9824L14.6052 36.5986C13.5174 36.7904 12.7914 37.8273 12.9832 38.915L29.8269 134.441C30.0187 135.529 31.0556 136.255 32.1433 136.063L36.4402 135.306V41.3125C36.4402 36.8942 40.0219 33.3125 44.4402 33.3125H154.155ZM52.4402 47.3125C51.3356 47.3125 50.4402 48.2079 50.4402 49.3125V142.312C50.4402 143.417 51.3356 144.312 52.4402 144.312H184.44C185.545 144.312 186.44 143.417 186.44 142.312V49.3125C186.44 48.208 185.545 47.3126 184.44 47.3125H52.4402Z" fill="#D9D9D9"/>
</svg>
